<?xml version="1.0" encoding="iso-8859-1"?>
<!-- Generator: Adobe Illustrator 19.0.0, SVG Export Plug-In . SVG Version: 6.00 Build 0)  -->
<svg version="1.1" id="Layer_1" xmlns="http://www.w3.org/2000/svg" xmlns:xlink="http://www.w3.org/1999/xlink" x="0px" y="0px"
	 viewBox="0 0 458.671 458.671" style="enable-background:new 0 0 458.671 458.671;" xml:space="preserve">
<g>
	<g>
		<g>
			<path d="M440.699,369.972c-0.031,0-0.064,0-0.096,0l-51.072,0.267c18.049-69.66,17.503-65.925,17.1-70.291l-29.106-110.85
				c-3.214-11.911-15.474-18.961-27.385-15.747l-38.458,10.376c-11.911,3.214-18.961,15.474-15.747,27.385l1.366,5.062l0.47,0.054
				l31.464-22.009l-31.359,37.102l-45.736-5.291c-5.348-10.697-8.637-17.277-14.148-28.302l9.308-4.653
				c2.592-1.296,3.643-4.448,2.347-7.04l-8.255-16.512c-1.296-2.592-4.448-3.643-7.04-2.348l-9.308,4.653l-0.839-1.677
				c-1.87-3.743-6.422-5.258-10.162-3.388c-3.742,1.87-5.259,6.419-3.388,10.161l0.839,1.678l-9.307,4.653
				c-2.592,1.296-3.643,4.448-2.347,7.041l8.255,16.512c1.296,2.592,4.448,3.643,7.04,2.348l9.307-4.653
				c6.312,12.626,2.72,5.441,11.718,23.439c-3.42,2.368-5.851,6.129-6.366,10.587c-0.95,8.218,4.942,15.653,13.161,16.602
				l59.457,6.878c4.938,0.566,9.891-1.34,13.162-5.212l36.542-43.236l-25.1,52.907c-2.665,5.617-7.644,9.381-13.254,10.723
				l3.205,11.88l-20.882,3.061c-7.796,1.142-13.94,7.228-15.156,15.013l-12.246,78.419c-1.532,9.809,5.179,19.004,14.988,20.535
				c9.805,1.531,19.003-5.175,20.536-14.988l10.202-65.327l51.451-7.541l-16.995,65.587c-2.95,11.383,5.661,22.486,17.402,22.486
				c0.032,0,0.063,0,0.094,0l74.427-0.39c9.928-0.052,17.936-8.142,17.883-18.071C458.622,377.959,450.584,369.972,440.699,369.972z
				"/>
			<circle cx="314.139" cy="131.813" r="33.066"/>
			<circle cx="109.707" cy="87.577" r="35.222"/>
			<path d="M163.742,262.832c1.925-1.653,3.489-3.783,4.471-6.314c3.19-8.215-0.884-17.461-9.1-20.651l-51.457-19.98l-11.098-50.538
				l18.7,36.372l16.125,6.261l6.239-38.356c2.11-12.97-6.695-25.195-19.665-27.305c-32.637-5.308-9.15-1.488-41.88-6.812
				c-12.97-2.109-25.195,6.695-27.305,19.665c-12.71,84.419-17.19,111.919-17.301,116.073c-0.206,7.669,1.573,11.727,5.63,15.703
				H15.149C6.782,286.95,0,293.732,0,302.098v89.069c0,8.366,6.782,15.149,15.149,15.149c8.366,0,15.149-6.782,15.149-15.149v-24.91
				h59.994v24.91c0,8.366,6.782,15.149,15.149,15.149c8.366,0,15.149-6.782,15.149-15.149c0-97.072,0.264-90.355-0.63-93.374
				l18.226,1.395l-13.623,84.944c-1.675,10.442,5.433,20.265,15.876,21.941c10.43,1.672,20.264-5.424,21.94-15.875l16.917-105.483
				C180.896,274.728,174.297,264.711,163.742,262.832z M90.291,346.06H30.297v-28.813h59.994V346.06z M79.421,256.28
				c-11.247-3.269-17.076-12.316-16.688-21.768l2.653-62.318L78.32,231.09c1.146,5.219,4.829,9.518,9.811,11.452l46.204,17.94
				C134.334,260.482,87.736,258.697,79.421,256.28z"/>
		</g>
	</g>
</g>
<g>
</g>
<g>
</g>
<g>
</g>
<g>
</g>
<g>
</g>
<g>
</g>
<g>
</g>
<g>
</g>
<g>
</g>
<g>
</g>
<g>
</g>
<g>
</g>
<g>
</g>
<g>
</g>
<g>
</g>
</svg>
