<svg height="512pt" viewBox="0 -64 512.00055 512" width="512pt" xmlns="http://www.w3.org/2000/svg"><path d="m509.769531 249.878906c-2.164062-3.515625-5.679687-5.980468-9.722656-6.820312l-64.046875-13.285156v-11.792969c0-42.164063-15.03125-83.234375-42.316406-115.644531-24.21875-28.769532-56.789063-49.277344-92.71875-58.621094-.683594-24.21875-20.582032-43.714844-44.964844-43.714844s-44.285156 19.496094-44.964844 43.714844c-35.929687 9.34375-68.5 29.851562-92.71875 58.617187-27.292968 32.414063-42.320312 73.488281-42.316406 115.648438l.003906 11.792969-64.050781 13.289062c-4.042969.835938-7.558594 3.304688-9.722656 6.816406-2.1640628 3.515625-2.789063 7.765625-1.71875 11.75 10.679687 39.863282 42.714843 72.289063 92.640625 93.769532 42.335937 18.21875 97.539062 28.253906 155.441406 28.253906 60.171875 0 118.875-10.539063 165.300781-29.675782 53.578125-22.085937 87.328125-54.019531 97.59375-92.347656 1.070313-3.988281.449219-8.238281-1.71875-11.75zm-107.308593 76.359375c-42.882813 17.675781-97.527344 27.410157-153.867188 27.410157-53.914062 0-104.910156-9.164063-143.585938-25.808594-24.789062-10.667969-55.316406-29.164063-69.882812-58.949219l40.882812-8.480469v12.570313c0 8.28125 6.71875 14.996093 15 14.996093 8.285157 0 15-6.714843 15-15l-.003906-55c-.007812-66.101562 43.191406-123.636718 104.996094-143.070312v76.589844c0 8.285156 6.71875 15 15 15 8.285156 0 15-6.714844 15-15v-95.472656s0 0 0-.003907v-11.023437c0-8.269532 6.730469-15 15-15 8.273438 0 15 6.730468 15 15v11.023437.003907 95.472656c0 8.285156 6.71875 15 15 15 8.285156 0 15-6.714844 15-15v-76.589844c61.800781 19.433594 105 76.964844 105 143.074219v53.996093c0 8.285157 6.714844 15 15 15s15-6.714843 15-15v-11.566406l40.566406 8.417969c-14.957031 28.023437-47.472656 46.429687-74.105468 57.410156zm0 0"/><path d="m256 196.476562c-32.523438 0-58 19.769532-58 45 0 25.234376 25.476562 45 58 45s58-19.765624 58-45c0-25.230468-25.476562-45-58-45zm0 60.003907c-17.089844 0-28-8.886719-28-15 0-6.117188 10.910156-15 28-15 17.09375 0 28 8.882812 28 15 0 6.113281-10.90625 15-28 15zm0 0"/></svg>