<?xml version="1.0" encoding="iso-8859-1"?>
<!-- Generator: Adobe Illustrator 19.0.0, SVG Export Plug-In . SVG Version: 6.00 Build 0)  -->
<svg version="1.1" id="Capa_1" xmlns="http://www.w3.org/2000/svg" xmlns:xlink="http://www.w3.org/1999/xlink" x="0px" y="0px"
	 viewBox="0 0 508 508" style="enable-background:new 0 0 508 508;" xml:space="preserve">
<g>
	<g>
		<path d="M491.6,176.05v-49c0-31.6-25.7-57.4-57.4-57.4H122.9c-31.6,0-57.4,25.7-57.4,57.4v120.4C27.4,261.05,0,297.35,0,340.05
			c0,54.2,44.1,98.3,98.3,98.3c39.6,0,73.7-23.6,89.3-57.4h246.7c31.6,0,57.4-25.7,57.4-57.4v-49.2H508v-98.3H491.6z M179.8,348.25
			L179.8,348.25c-3.9,38.7-34.7,69.5-73.3,73.3v-16H90.1v16c-38.7-3.9-69.5-34.7-73.3-73.3h16v-16.4h-16
			c3.9-38.7,34.7-69.5,73.3-73.3v16h16.4v-16c38.7,3.9,69.5,34.7,73.3,73.3h-16v16.4H179.8z M434.2,364.65H193.4
			c2-7.9,3.2-16.1,3.2-24.6c0-54.2-44.1-98.3-98.3-98.3c-5.6,0-11,0.6-16.4,1.5v-116.2c0-22.6,18.4-41,41-41h311.4
			c22.6,0,41,18.4,41,41v49.2h-80.2c-26.1,0-48.3,19.5-50.7,44.4c-1.3,13.8,2.7,51.6,48.9,54h81.9v49h0
			C475.2,346.25,456.8,364.65,434.2,364.65z M491.7,258.15h-0.1h-98.3c-28.1,0-33.5-26.6-32.6-36c1.6-16.6,16.7-29.5,34.4-29.5h96.6
			V258.15z"/>
	</g>
</g>
<g>
	<g>
		<path d="M401.5,200.75c-13.6,0-24.6,11.1-24.6,24.6c0,13.6,11,24.6,24.6,24.6c13.6,0,24.6-11,24.6-24.6
			C426.1,211.75,415.1,200.75,401.5,200.75z M401.5,233.55c-4.5,0-8.2-3.7-8.2-8.2s3.7-8.2,8.2-8.2s8.2,3.7,8.2,8.2
			S406,233.55,401.5,233.55z"/>
	</g>
</g>
<g>
	<g>
		<polygon points="90.1,290.95 90.1,331.85 65.5,331.85 65.5,348.25 106.5,348.25 106.5,290.95 		"/>
	</g>
</g>
<g>
</g>
<g>
</g>
<g>
</g>
<g>
</g>
<g>
</g>
<g>
</g>
<g>
</g>
<g>
</g>
<g>
</g>
<g>
</g>
<g>
</g>
<g>
</g>
<g>
</g>
<g>
</g>
<g>
</g>
</svg>
